<?xml version="1.0" encoding="UTF-8"?>
<svg xmlns="http://www.w3.org/2000/svg" xmlns:xlink="http://www.w3.org/1999/xlink" viewBox="0 0 1600 1600" width="1600px" height="1600px">
<g id="surface194859186">
<path style=" stroke:none;fill-rule:nonzero;fill:rgb(65.882355%,65.098041%,65.098041%);fill-opacity:1;" d="M 800 150 C 441.023438 150 150 441.023438 150 800 C 150 1106.925781 362.800781 1364 648.875 1432.148438 C 634.074219 1428.625 619.398438 1424.675781 605 1420.175781 L 605 1271.25 C 605 1271.25 580.625 1279.375 548.125 1279.375 C 457.199219 1279.375 419.425781 1198.25 410 1157.5 C 404.273438 1132.675781 389.324219 1109.148438 373.273438 1094.773438 C 354.101562 1077.675781 345.125 1077.625 345 1071.773438 C 344.75 1059.5 361.449219 1060 369.375 1060 C 410 1060 440.800781 1103.226562 455.101562 1125.574219 C 490.523438 1180.75 528.550781 1190 548.125 1190 C 572.5 1190 593.550781 1186.351562 608.050781 1179.351562 C 614.75 1132.148438 635.75 1090.101562 670 1060 C 517.574219 1029.523438 410 942.101562 410 800 C 410 726.800781 439.375 659.523438 488.324219 605.199219 C 483.324219 591.023438 475 562.351562 475 515.625 C 475 484.75 477.148438 446.851562 491.25 410 C 491.25 410 583.949219 410.648438 671.375 493.449219 C 711.726562 481.699219 754.898438 475 800 475 C 845.101562 475 888.273438 481.699219 928.625 493.449219 C 1016.050781 410.648438 1108.75 410 1108.75 410 C 1122.925781 446.851562 1125 484.75 1125 515.625 C 1125 566 1118.300781 595.375 1114.199219 608.050781 C 1161.648438 661.875 1190 728.101562 1190 800 C 1190 942.101562 1082.425781 1029.523438 930 1060 C 970.699219 1095.75 995 1147.824219 995 1206.25 L 995 1420.175781 C 980.601562 1424.699219 965.949219 1428.625 951.125 1432.148438 C 1237.199219 1364 1450 1106.925781 1450 800 C 1450 441.023438 1158.976562 150 800 150 Z M 845.324219 1448.25 C 830.351562 1449.300781 815.25 1450 800 1450 C 815.25 1450 830.324219 1449.273438 845.324219 1448.25 Z M 944.648438 1433.648438 C 915.550781 1440.273438 885.726562 1444.925781 855.273438 1447.5 C 885.726562 1444.925781 915.550781 1440.25 944.648438 1433.648438 Z M 800 1450 C 784.75 1450 769.648438 1449.300781 754.675781 1448.25 C 769.675781 1449.273438 784.75 1450 800 1450 Z M 744.699219 1447.5 C 714.273438 1444.925781 684.425781 1440.273438 655.351562 1433.648438 C 684.449219 1440.25 714.273438 1444.925781 744.699219 1447.5 Z M 744.699219 1447.5 "/>
</g>
</svg>
